<svg xmlns="http://www.w3.org/2000/svg" width="352.28" height="348.38" viewBox="0 0 352.28 348.38"><g id="e9703194-40f7-444f-8848-85f96e1ec717" data-name="logo rubike"><g id="aa7df475-c216-443a-8916-ff9e01864a3e" data-name="GRAPHICS"><g id="f91568d4-387e-43a7-97e5-e272756db2e7" data-name="rubike"><circle cx="21.18" cy="199.13" r="1.1" style="fill:#db402a"/><path d="M289.55,163a69.26,69.26,0,0,0-23-.13A223.69,223.69,0,0,0,244.69,135a12.77,12.77,0,0,0,4.28-1.71c2.95-1.91,4.73-5.06,5.28-9.35,1.45-11.23-7-22.55-11.84-28a5.59,5.59,0,0,0,.81-2.85A7.22,7.22,0,0,0,246,91c6-7.26,1.44-27.62,1.24-28.49a1.46,1.46,0,0,0-2.85.65c1.25,5.49,3.56,20.87-.64,26a4.19,4.19,0,0,1-.64.49l-1.75-31a5.84,5.84,0,1,0-11.66.66l1.93,34.09a5.76,5.76,0,0,0,3.22,4.81l.89,14.49-4.08,9.55c-1.56-1.36-2.6-2.2-2.84-2.39a2.92,2.92,0,0,0-3.62,4.59c.07,0,1.24,1,3.09,2.66-.9.89-1.88,2-3,3.29-24.66,13.13-69.85,49.29-104.07,77.87C112,197.55,97.1,193.13,80.2,198c-28,8-50.62,38.3-50.62,67.59S52.24,312.1,80.2,304.06c27.31-7.85,49.51-36.91,50.53-65.55,25.32-5.17,58.76-18.81,76.66-54.62,13-26,21-38.48,25.55-44.42l.7-.34c2.06,10.17,7.15,20.78,13.46,30.84-12.44,7.65-20.29,20.25-20.29,35.76,0,29.45,28.09,58.06,62.74,63.91s62.73-13.29,62.73-42.74S324.19,168.84,289.55,163ZM252.8,123.73c-.49,3.85-2.05,6.64-4.62,8.31a11.79,11.79,0,0,1-4.7,1.66l-.71-.74a5.65,5.65,0,0,0,.07-3s0,0,0,0a5.76,5.76,0,0,0-1.48-5.33,6.48,6.48,0,0,0-3.61-1.75l3.63-8.49a3,3,0,0,0,.22-1.33l-.93-15.21a5.54,5.54,0,0,0,.87-.66C246.24,102.55,254.14,113.36,252.8,123.73ZM80.2,289.25c-20.15,5.8-36.49-6.62-36.49-27.73S60.05,218.59,80.2,212.8c11.48-3.3,21.7-.68,28.39,6.07C90.74,234,77.94,245.23,76.34,246.64a5.84,5.84,0,1,0,7.72,8.77c4.41-3.87,9.79-8.56,15.88-13.8h1.47a145.89,145.89,0,0,0,15.27-.9C116.59,261.77,100.29,283.48,80.2,289.25Zm34.58-60.31a.61.61,0,0,0,0,.12l-.21,0Zm82.16-50.27c-15.26,30.51-44.38,42.91-67.07,47.91a43.19,43.19,0,0,0-2.49-8.24c27.31-22.83,59.24-48.52,82.87-64.89C206.42,160.22,202,168.51,196.94,178.67ZM239.4,138a221.33,221.33,0,0,1,20.93,26.19,53.16,53.16,0,0,0-8,3C246.18,157.57,241.32,147.51,239.4,138Zm29.9,40.39a209.74,209.74,0,0,1,12.6,25.74A282.78,282.78,0,0,1,262,181.07,39.06,39.06,0,0,1,269.3,178.42Zm20.25,76.47c-25.06-4.23-45.38-24.93-45.38-46.23a29.54,29.54,0,0,1,12.71-24.59,290.23,290.23,0,0,0,30.17,33.53,2.73,2.73,0,0,0,1.35,1.27l.65.6a2.92,2.92,0,1,0,3.93-4.32l-1.13-1.06a216.08,216.08,0,0,0-16.41-36.8,50.79,50.79,0,0,1,14.11.46c25.06,4.22,45.37,24.92,45.37,46.22S314.61,259.12,289.55,254.89Z" style="fill:#db402a"/><path d="M247.69,68.7c-.28-3.64-2.05-6.62-4.33-9.39-4.54-5.49-11.57-4.31-18-3.08a8,8,0,0,0-7.17-3.95c-3.43,0-6.85-.12-10.27-.26a8.92,8.92,0,0,0,1.25-3.46c.4-3-.67-4.17-2.23-6.22.5-.51,1-1.05,1.46-1.63,2.45-2.72,5.07-3.16,8.1-4.69,2.47-1.26,3.48-2.91,3.66-4.69,4,1.2,8.27,1.28,14.33.17,2.44-.45,2.87-4.26.7-5.34C223.44,20.27,210-7.08,192.82,1.73c-2.33,1.2-3.43,3.71-5.4,5.36-3.33,2.77-9,3.27-12,6.49-3.75,4-1.54,9.9-.28,14.61,0,.07,0,.13-.06.2a5.58,5.58,0,0,0-1.76-.11c-2.57.25-5,1.92-6.92,3.91-9.12-.46-17.85.89-23.5,9.48-3.4,5.17-5,11.44-7.27,17.13a51,51,0,0,1-8.12,14.33C115.82,83.49,97,91.17,95.9,106.68a17.88,17.88,0,0,0-1,8.76,28.53,28.53,0,0,0,6,13.41c7.76,14.52,22.74,24,38.14,29,0,.08,0,.14,0,.22-.14,15.82,5.92,31.62-2,46.71-8.72,16.63,16.48,31.42,25.23,14.75a62.15,62.15,0,0,0,2.8-6.28c1.9,7.38,14.36,9.3,17,.14,4.8-16.67,18.57-31.43,16.62-49.76-1.54-14.54-14.48-19.22-27.29-22.28.23-1.82.5-3.63.84-5.44.91-4.82.4-10.81-3.75-14.21a35.87,35.87,0,0,0-9.93-5.17L183.17,99.2c-.68,11.32-.89,23.09,4.21,32.76,3.06,5.83,7.69,11.23,12.11,16.06,5.1,5.57,5,4.17,11.7,9.54,8.81,7,17.15-1,11.4-10.73-6.1-10.35-7.2-6.44-14.69-15.89-10.21-12.9-6.88-29.55-6.48-45.06a7.85,7.85,0,0,0-2-5.71,15.25,15.25,0,0,0,.24-6.6c-.28-1.42-.6-2.95-.95-4.53,6.48.45,13,.74,19.51.77a8.38,8.38,0,0,0,4.71-1.31,44.94,44.94,0,0,0,2.74,5.19,26.93,26.93,0,0,0,5.42,5.81c2.83,2.45,7-1.67,4.13-4.13A32.32,32.32,0,0,1,231.85,72a2.61,2.61,0,0,0,1.74-2.56c0-.39,2.3-.92,2.64-1,.58-.17,2.57-.3,2-.73a2.33,2.33,0,0,0,3.23-.26c1.52,5.08-.88,10.85.25,16.15.78,3.68,6.42,2.12,5.63-1.55C246.37,77.59,248,73.19,247.69,68.7Z" style="fill:#db402a"/><circle cx="2.92" cy="293.7" r="2.92" style="fill:#db402a"/><circle cx="1.24" cy="304.8" r="1.24" style="fill:#db402a"/><circle cx="47.12" cy="338.01" r="3.41" style="fill:#db402a"/><circle cx="53.13" cy="329.49" r="0.91" style="fill:#db402a"/><circle cx="49.07" cy="347.88" r="0.5" style="fill:#db402a"/><circle cx="36.93" cy="344.14" r="1.32" style="fill:#db402a"/><circle cx="13.83" cy="284.34" r="0.68" style="fill:#db402a"/><circle cx="32.86" cy="222.5" r="3.29" style="fill:#db402a"/><circle cx="22.49" cy="220.52" r="1.31" style="fill:#db402a"/></g></g></g></svg>